<svg xmlns="http://www.w3.org/2000/svg" width="256" height="256" viewBox="0 0 256 256" role="img" aria-label="VB Consultants logo mark">
  <rect width="256" height="256" rx="64" fill="#ffffff"/>
  <rect x="8" y="8" width="240" height="240" rx="58" fill="none" stroke="#111111" stroke-opacity=".10" stroke-width="8"/>
  <path d="M54 68h32l41 104 41-104h34l-59 134h-33L54 68Z" fill="#a41624"/>
  <path d="M109 68h43c29 0 48 15 48 39 0 13-6 24-18 31 16 7 25 20 25 38 0 28-22 45-56 45h-42V68Zm43 55c14 0 22-6 22-17s-8-17-22-17h-14v34h14Zm2 77c17 0 26-8 26-22 0-13-9-21-26-21h-16v43h16Z" fill="#111111"/>
  <path d="M170 45h13v31h-13V45Zm21 12h13v19h-13V57Zm-42 11h13v8h-13v-8Z" fill="#111111"/>
  <path d="M151 76 205 31" stroke="#a41624" stroke-width="9" stroke-linecap="round"/>
  <path d="M205 31v27m0-27h-27" stroke="#a41624" stroke-width="9" stroke-linecap="round" stroke-linejoin="round"/>
</svg>
