<svg xmlns="http://www.w3.org/2000/svg" width="256" height="256" viewBox="0 0 256 256" role="img" aria-label="VB Consultants logo mark">
  <rect width="256" height="256" rx="64" fill="#ffffff"/>
  <rect x="8" y="8" width="240" height="240" rx="58" fill="none" stroke="#111111" stroke-opacity=".10" stroke-width="8"/>
  <path d="M39 62h37l51 119 45-119h36l-62 142h-39L39 62Z" fill="#b51223"/>
  <path d="M105 63h51c33 0 54 17 54 43 0 13-6 25-18 32 18 7 29 22 29 42 0 31-25 50-63 50h-53V63Zm50 58c14 0 23-7 23-18 0-12-9-18-23-18h-18v36h18Zm4 87c18 0 28-9 28-23 0-15-10-23-28-23h-22v46h22Z" fill="#222326"/>
  <path d="M148 176h36M148 191h36M148 206h30" stroke="#ffffff" stroke-width="7" stroke-linecap="round" opacity=".96"/>
  <path d="M166 42h13v34h-13V42Zm21 13h13v21h-13V55Zm-42 13h13v8h-13v-8Z" fill="#222326"/>
  <path d="M137 169C154 120 181 78 218 39" fill="none" stroke="#b51223" stroke-width="12" stroke-linecap="round"/>
  <path d="M218 39v31m0-31h-31" fill="none" stroke="#b51223" stroke-width="12" stroke-linecap="round" stroke-linejoin="round"/>
</svg>
